<?xml version="1.0" encoding="UTF-8" standalone="no"?>
<!-- Created with Inkscape (http://www.inkscape.org/) -->

<svg
   width="98.439316mm"
   height="67.644005mm"
   viewBox="0 0 98.439316 67.644005"
   version="1.1"
   id="svg1"
   inkscape:version="1.4 (86a8ad7, 2024-10-11)"
   sodipodi:docname="CPRTop.svg"
   xmlns:inkscape="http://www.inkscape.org/namespaces/inkscape"
   xmlns:sodipodi="http://sodipodi.sourceforge.net/DTD/sodipodi-0.dtd"
   xmlns="http://www.w3.org/2000/svg"
   xmlns:svg="http://www.w3.org/2000/svg">
  <sodipodi:namedview
     id="namedview1"
     pagecolor="#ffffff"
     bordercolor="#000000"
     borderopacity="0.25"
     inkscape:showpageshadow="2"
     inkscape:pageopacity="0.0"
     inkscape:pagecheckerboard="0"
     inkscape:deskcolor="#d1d1d1"
     inkscape:document-units="mm"
     inkscape:zoom="2"
     inkscape:cx="459.25"
     inkscape:cy="461.75"
     inkscape:window-width="2160"
     inkscape:window-height="1334"
     inkscape:window-x="-11"
     inkscape:window-y="-11"
     inkscape:window-maximized="1"
     inkscape:current-layer="layer1">
    <inkscape:page
       x="0"
       y="0"
       width="98.439316"
       height="67.644005"
       id="page2"
       margin="0"
       bleed="0" />
  </sodipodi:namedview>
  <defs
     id="defs1">
    <inkscape:path-effect
       effect="bspline"
       id="path-effect12"
       is_visible="true"
       lpeversion="1.3"
       weight="33.333333"
       steps="2"
       helper_size="0"
       apply_no_weight="true"
       apply_with_weight="true"
       only_selected="false"
       uniform="false" />
    <inkscape:path-effect
       effect="bspline"
       id="path-effect10"
       is_visible="true"
       lpeversion="1.3"
       weight="33.333333"
       steps="2"
       helper_size="0"
       apply_no_weight="true"
       apply_with_weight="true"
       only_selected="false"
       uniform="false" />
    <inkscape:path-effect
       effect="bspline"
       id="path-effect4"
       is_visible="true"
       lpeversion="1.3"
       weight="33.333333"
       steps="2"
       helper_size="0"
       apply_no_weight="true"
       apply_with_weight="true"
       only_selected="false"
       uniform="false" />
    <inkscape:path-effect
       effect="bspline"
       id="path-effect12-5"
       is_visible="true"
       lpeversion="1.3"
       weight="33.333333"
       steps="2"
       helper_size="0"
       apply_no_weight="true"
       apply_with_weight="true"
       only_selected="false"
       uniform="false" />
  </defs>
  <g
     inkscape:label="Ebene 1"
     inkscape:groupmode="layer"
     id="layer1"
     transform="translate(-55.780339,-92.917627)">
    <g
       id="g1"
       transform="translate(-25.810495)">
      <ellipse
         style="fill:#000000;fill-opacity:1;stroke:#000000;stroke-width:0.264583"
         id="path1"
         cx="109.79863"
         cy="148.03633"
         rx="6.7692304"
         ry="6.9102564" />
      <ellipse
         style="fill:#000000;fill-opacity:1;stroke:#000000;stroke-width:0.264583"
         id="path1-8"
         cx="107.09347"
         cy="108.81844"
         rx="6.7692304"
         ry="6.9102564" />
      <path
         style="fill:#000000;fill-opacity:1;stroke:#000000;stroke-width:0.264583"
         d="m 118.91113,107.62094 c 0.31823,-0.88067 0.71136,-1.4405 1.8387,-1.8745 1.12733,-0.434 2.98865,-0.74208 6.37049,-0.32939 3.38184,0.4127 8.28386,1.54615 12.89557,2.79433 4.61171,1.24817 8.93283,2.61099 11.16885,4.09018 2.23601,1.4792 2.38682,3.07466 2.20399,4.50402 -0.18283,1.42935 -0.69928,2.69244 -1.80515,3.44034 -1.10587,0.74791 -2.80108,0.98059 -5.62653,0.78114 -2.82544,-0.19945 -6.78093,-0.831 -10.18806,-1.51243 -3.40714,-0.68142 -6.26573,-1.41269 -8.89172,-2.04426 -2.62599,-0.63156 -5.01922,-1.16339 -6.41514,-1.98265 -1.39591,-0.81926 -1.79444,-1.9259 -2.02084,-2.73767 -0.22641,-0.81176 -0.28069,-1.32863 -0.18618,-2.1878 0.0945,-0.85918 0.3378,-2.06064 0.65602,-2.94131 z"
         id="path3"
         inkscape:path-effect="#path-effect4"
         inkscape:original-d="m 118.8362,107.30013 c 0.39316,-0.55986 0.78629,-1.11969 1.17946,-1.67957 1.8615,-0.30812 3.72282,-0.6162 5.58428,-0.92431 4.90222,1.1335 9.80424,2.26695 14.70636,3.40043 4.3213,1.36287 8.64242,2.72569 12.96363,4.08853 0.15082,1.59555 0.30163,3.19101 0.45245,4.78657 -0.51648,1.26315 -1.03293,2.52624 -1.5494,3.78936 -1.69527,0.23269 -3.39048,0.46537 -5.08573,0.69805 -3.95564,-0.63158 -7.91113,-1.26313 -11.8667,-1.89469 -2.8587,-0.73129 -5.71729,-1.46256 -8.57593,-2.19384 -2.39334,-0.53185 -4.78657,-1.06368 -7.17986,-1.59552 -0.39854,-1.10668 -0.79707,-2.21332 -1.1956,-3.31998 -0.0543,-0.51687 -0.10856,-1.03374 -0.16284,-1.55061 0.24329,-1.20148 0.48658,-2.40294 0.72988,-3.60442 z"
         sodipodi:nodetypes="sccccccccccsss"
         transform="matrix(0.93919966,0.34184072,-0.39173335,1.0762785,45.639523,-45.910727)" />
      <rect
         style="fill:#000000;fill-opacity:1;stroke:#000000;stroke-width:0.264583"
         id="rect4"
         width="7.474359"
         height="27.641026"
         x="96.310226"
         y="162.34093"
         ry="2.9790001"
         rx="3.5999999"
         transform="rotate(-15.9)" />
      <rect
         style="fill:#000000;fill-opacity:1;stroke:#000000;stroke-width:0.264583"
         id="rect4-5"
         width="7.474359"
         height="27.641026"
         x="148.44017"
         y="-171.46896"
         ry="3.7371795"
         transform="rotate(90)" />
      <path
         id="rect5"
         style="fill:#000000;fill-opacity:1;stroke:#000000;stroke-width:0.288544"
         d="m 93.87179,148.2478 c -2.054138,0 -3.707784,1.73953 -3.707784,3.90054 0,2.161 1.653646,3.90053 3.707784,3.90053 h 32.25488 c 2.05414,0 3.7083,-1.73953 3.7083,-3.90053 0,-2.16101 -1.65416,-3.90054 -3.7083,-3.90054 h -8.8961 a 7.4461536,7.6012821 0 0 1 -7.42435,7.29568 7.4461536,7.6012821 0 0 1 -7.42487,-7.29568 z" />
      <path
         id="rect6"
         style="fill:#000000;fill-opacity:1;stroke:#000000;stroke-width:0.282529;stroke-opacity:1"
         d="m 102.91775,143.25792 c -5.251913,0 -9.480042,2.42947 -9.480042,5.44722 0,3.01774 4.228129,5.44721 9.480042,5.44721 h 2.79208 a 7.4461536,7.6012821 0 0 1 -3.28714,-6.29264 7.4461536,7.6012821 0 0 1 1.54306,-4.60179 z m 12.8757,0 a 7.4461536,7.6012821 0 0 1 1.52187,4.60179 7.4461536,7.6012821 0 0 1 -3.28714,6.29264 h 3.37137 c 5.25191,0 9.48004,-2.42947 9.48004,-5.44721 0,-3.01775 -4.22813,-5.44722 -9.48004,-5.44722 z" />
      <rect
         style="fill:#000000;fill-opacity:1;stroke:#000000;stroke-width:0.305203;stroke-opacity:1"
         id="rect8"
         width="6.0872555"
         height="29.422884"
         x="131.59848"
         y="94.147926"
         rx="4.3164177"
         ry="3.3059766"
         transform="matrix(0.98555788,0.16933891,-0.17806014,0.98401961,0,0)" />
      <g
         id="g12"
         transform="translate(13.891334,-2.2918362)">
        <path
           style="fill:#e2e3db;fill-opacity:1;stroke:none;stroke-width:0.1;stroke-dasharray:none;stroke-opacity:1"
           d="m 85.672447,115.93662 c 0.01619,-0.0834 0.0054,-0.0278 0.04156,-0.0853 0.03617,-0.0575 0.09767,-0.11669 0.205017,-0.13905 0.10735,-0.0224 0.260543,-0.008 0.471132,0.0524 0.210589,0.0602 0.478582,0.1662 0.66244,0.27942 0.183859,0.11323 0.283576,0.23372 0.362525,0.33137 0.07895,0.0977 0.137114,0.17243 0.19944,0.26903 0.06233,0.0966 0.128803,0.21502 0.154596,0.31303 0.02579,0.098 0.0109,0.17561 -0.06693,0.22639 -0.07783,0.0508 -0.21856,0.0747 -0.306843,0.0514 -0.08828,-0.0233 -0.124116,-0.094 -0.161593,-0.18735 -0.03748,-0.0934 -0.07661,-0.20948 -0.167593,-0.32505 -0.09098,-0.11557 -0.233836,-0.23062 -0.394849,-0.31268 -0.161013,-0.0821 -0.34018,-0.13115 -0.500106,-0.13193 -0.159927,-7.9e-4 -0.30071,0.0468 -0.383447,0.023 -0.08274,-0.0238 -0.107485,-0.11881 -0.119752,-0.1776 -0.01227,-0.0588 -0.0125,-0.0363 -0.01215,-0.07 3.44e-4,-0.0337 3.62e-4,-0.0337 0.01655,-0.11714 z"
           id="path10"
           inkscape:path-effect="#path-effect10"
           inkscape:original-d="m 85.656257,116.02002 c 0.03238,-0.16681 0.02159,-0.1112 0.03238,-0.16681 0.06153,-0.0593 0.12304,-0.11853 0.184561,-0.17779 0.153184,0.0145 0.306371,0.0291 0.459548,0.0436 0.268002,0.10596 0.535996,0.21191 0.803992,0.31786 0.09972,0.1205 0.19944,0.24099 0.299162,0.36149 0.05817,0.0748 0.11634,0.14958 0.174511,0.22437 0.06648,0.11842 0.132958,0.23683 0.19944,0.35525 -0.0149,0.0776 -0.02979,0.1552 -0.04469,0.2328 -0.14075,0.024 -0.281477,0.048 -0.422246,0.0719 -0.03583,-0.0706 -0.07164,-0.14127 -0.107462,-0.2119 -0.03913,-0.11611 -0.07827,-0.23222 -0.1174,-0.34833 -0.142833,-0.11503 -0.285684,-0.23008 -0.428533,-0.34512 -0.179175,-0.0491 -0.358337,-0.0982 -0.537509,-0.14725 -0.140694,0.0475 -0.281457,0.0951 -0.422179,0.14257 -0.02477,-0.0951 -0.04951,-0.19012 -0.07428,-0.2852 2.29e-4,-0.0225 0,0 6.87e-4,-0.0674 z"
           sodipodi:nodetypes="sccccccccccccccsss"
           transform="translate(7.3392018,-7.3360488)" />
        <circle
           style="fill:#e2e3db;fill-opacity:1;stroke:none;stroke-width:0.1;stroke-dasharray:none;stroke-opacity:1"
           id="path11"
           cx="93.569885"
           cy="109.90195"
           r="0.13221154" />
        <path
           style="fill:none;fill-opacity:1;stroke:#999999;stroke-width:0.01;stroke-dasharray:none;stroke-opacity:0.994863"
           d="m 93.59,109.76285 c -0.02233,-0.0166 -0.06702,-0.0499 -0.113752,-0.0883 -0.04673,-0.0384 -0.09559,-0.0821 -0.143885,-0.13297 -0.0483,-0.0509 -0.09607,-0.10905 -0.133604,-0.17779 -0.03753,-0.0687 -0.0648,-0.14796 -0.06948,-0.22486 -0.0047,-0.0769 0.01325,-0.15132 0.02636,-0.1958 0.01311,-0.0445 0.02145,-0.0591 0.02147,-0.0536 1.4e-5,0.005 -0.0082,0.0307 -0.01513,0.0526 -0.0069,0.0219 -0.0125,0.0403 -0.02017,0.0697 -0.0077,0.0295 -0.01742,0.0699 -0.01714,0.10937 2.84e-4,0.0395 0.01063,0.0782 0.02482,0.11891 0.01419,0.0407 0.03219,0.0833 0.05093,0.12095 0.01874,0.0377 0.0382,0.0704 0.06145,0.10037 0.02325,0.03 0.05027,0.0573 0.09389,0.0974 0.04362,0.0401 0.103838,0.093 0.14937,0.13186 0.04553,0.0389 0.07636,0.0638 0.09178,0.0762 0.01542,0.0125 0.01541,0.0124 -0.0069,-0.004 z"
           id="path12"
           inkscape:original-d="m 93.612326,109.77946 c -0.04467,-0.0332 -0.08933,-0.0665 -0.134001,-0.0997 -0.04882,-0.0436 -0.09764,-0.0873 -0.146463,-0.13088 -0.04778,-0.0582 -0.09557,-0.11634 -0.143348,-0.17451 -0.02729,-0.0793 -0.05455,-0.15853 -0.08185,-0.23784 0.01794,-0.0745 0.03587,-0.14891 0.0538,-0.22337 0.0083,-0.0145 0.01662,-0.0291 0.02492,-0.0436 -0.0083,0.0254 -0.01648,0.0507 -0.02474,0.0761 -0.0056,0.0184 -0.01116,0.0368 -0.01674,0.0552 -0.0098,0.0405 -0.01952,0.0809 -0.02927,0.12134 0.01033,0.0386 0.02066,0.0773 0.03101,0.11597 0.01805,0.0427 0.03604,0.0853 0.05406,0.12794 0.01946,0.0327 0.03891,0.0654 0.05839,0.0981 0.02704,0.0273 0.05407,0.0546 0.08105,0.0819 0.06023,0.0529 0.120459,0.10577 0.180689,0.15866 0.03083,0.0249 0.06166,0.0498 0.0925,0.0747 z"
           inkscape:path-effect="#path-effect12"
           sodipodi:nodetypes="scccccccccccccccs"
           transform="translate(-0.12402344,0.01653646)" />
        <path
           style="fill:none;fill-opacity:1;stroke:#999999;stroke-width:0.01;stroke-dasharray:none;stroke-opacity:0.994863"
           d="m 93.59,109.76285 c -0.02233,-0.0166 -0.06702,-0.0499 -0.113752,-0.0883 -0.04673,-0.0384 -0.09559,-0.0821 -0.143885,-0.13297 -0.0483,-0.0509 -0.09607,-0.10905 -0.126713,-0.17658 -0.03064,-0.0675 -0.04414,-0.14438 -0.04961,-0.21702 -0.0055,-0.0726 -0.0029,-0.14099 0.01126,-0.18718 0.01416,-0.0462 0.03988,-0.0702 0.0407,-0.069 8.22e-4,0.001 -0.02321,0.0275 -0.03582,0.0502 -0.01261,0.0228 -0.01371,0.0418 -0.01518,0.072 -0.0015,0.0301 -0.0033,0.0713 -0.0015,0.1091 0.0018,0.0378 0.0073,0.0723 0.01653,0.11124 0.0092,0.0389 0.02205,0.0823 0.03821,0.12034 0.01615,0.038 0.03562,0.0707 0.05766,0.10174 0.02204,0.031 0.04666,0.0604 0.08907,0.10154 0.04241,0.0411 0.102626,0.094 0.148158,0.13289 0.04553,0.0389 0.07636,0.0638 0.09178,0.0762 0.01542,0.0125 0.01538,0.0123 -0.0069,-0.004 z"
           id="path12-6"
           inkscape:original-d="m 93.612326,109.77946 c -0.04467,-0.0332 -0.08933,-0.0665 -0.134001,-0.0997 -0.04882,-0.0436 -0.09764,-0.0873 -0.146463,-0.13088 -0.04778,-0.0582 -0.09557,-0.11634 -0.143348,-0.17451 -0.01349,-0.0769 -0.02701,-0.15374 -0.04051,-0.23061 0.0026,-0.0684 0.0051,-0.13676 0.0077,-0.20514 0.02575,-0.024 0.05145,-0.048 0.07725,-0.072 -0.02414,0.0264 -0.04816,0.0527 -0.07229,0.0791 -0.0011,0.0191 -0.0021,0.0382 -0.0033,0.0573 -0.0019,0.0411 -0.0037,0.0823 -0.0055,0.1234 0.0055,0.0345 0.01101,0.069 0.01654,0.10357 0.01286,0.0433 0.02572,0.0867 0.03856,0.13001 0.01947,0.0327 0.03893,0.0654 0.05839,0.0981 0.02461,0.0294 0.04921,0.0588 0.07382,0.0881 0.06023,0.0529 0.120459,0.10577 0.180689,0.15866 0.03083,0.0249 0.06166,0.0498 0.0925,0.0747 z"
           inkscape:path-effect="#path-effect12-5"
           transform="matrix(1.0812477,0,0,1.0554558,-7.747684,-6.0447527)"
           sodipodi:nodetypes="scccccccccccccccs" />
      </g>
    </g>
    <rect
       style="fill:none;stroke:none;stroke-width:0.00633431;stroke-opacity:0.994863"
       id="rect1"
       width="98.439316"
       height="67.644012"
       x="55.780342"
       y="92.917625"
       rx="2.7741563"
       ry="1.5511107"
       inkscape:label="rect1"
       inkscape:export-filename="..\..\Dokumente\Uni\5. Semester\MoCIoT\CPRBottom.svg"
       inkscape:export-xdpi="96"
       inkscape:export-ydpi="96" />
  </g>
</svg>
